<svg xmlns="http://www.w3.org/2000/svg" viewBox="0 0 5000 2892"><g id="Layer_2" data-name="Layer 2"><g id="Layer_1-2" data-name="Layer 1"><path d="M8.73,2827.34c4.5,6.86,4.16,13.88-.19,20.56-2.48,3.82-5.67,7.19-8.54,10.77v20c4.64,5.19,10.33,8.48,17.34,8.8,15.28.67,30.56,1.64,45.83,1.55,16-.1,32-1.18,47.94-2q63.88-3.39,127.76-7c49.24-2.86,98.44-6.55,147.71-8.8,153.2-7,306.51-8.93,459.85-8.59,72,.16,144,.75,216-.35,68-1,135.92-4.17,203.88-6.15,70.63-2.06,141.27-3.68,211.9-5.83,61.29-1.87,122.58-3.87,183.85-6.42,113.89-4.75,227.73-10.88,341.74-11.9,25.32-.23,50.66.4,76,1.38,62.06,2.39,123.93,0,185.76-5.51,63.05-5.65,126.12-11.33,189.28-15.59,31.21-2.11,62.64-1.61,93.95-1.11,11.82.19,23.67,3.39,35.36,5.87a185.17,185.17,0,0,1,23,6.79,464.42,464.42,0,0,0,83.14,21c34.19,5.35,68.05,12.95,102,20,43.79,9.08,88.07,14.31,132.59,18.16,124.4,10.75,249.05,9.53,373.71,8.34,57.32-.55,114.66-1,172-.2,45.6.66,90.43-3.64,134.82-14,35.08-8.16,70.54-14.36,106.59-16.19,16-.81,32-1.77,47.94-.73,109.19,7.18,218.5,7,327.84,6.81,120-.25,240-1,360,0,70,.6,139.9,4.77,209.92,3.39,25.32-.5,50.66-.41,76-.68,68.69-.75,137.3.7,205.8,6.4,10.56.88,21.27.06,31.91-.15,9.33-.18,16.56-3.6,20.8-12.71,1.56-3.36,5.23-5.74,7.93-8.57v-12c-12.69-7.76-26.6-11.41-41.24-13.71-44.38-7-89-9-133.55-4.43-70.43,7.18-141,9.3-211.68,7.75q-103-2.25-205.87-6.24c-65.93-2.65-131.82-6.54-197.72-9.95-27.32-1.41-54.55-1.82-81.87,1.12-17.85,1.92-35.94,1.86-53.92,2.2a88.79,88.79,0,0,1-19.84-1.94c-8.87-1.85-13.43-6.36-12.69-15.34,2.13-25.8-4.74-50.24-9.48-75.06-5.28-27.68-5.14-55.73-4.76-83.72.47-34,1.77-68,2.25-102,.4-28.67-.25-57.33-5.72-85.64-3.81-19.75-10-38.62-20-56.24-8.44-15-19.81-26.55-35.64-33.72-44.34-20.06-43-24.78-64.37-59.25-8.76-14.16-16.51-28.94-25.09-43.22-4.9-8.16-5.26-16.47-1.8-24.89,3.54-8.61,7-17.44,11.86-25.3,34.24-55,48.14-116.61,58.94-179.2,12.49-72.4,17.06-145.59,19.84-218.88s5.22-146.57,7.1-219.88c1.08-42,1.5-84,.86-126a574.82,574.82,0,0,0-15.46-124.76c-2.93-12.29-6.5-24.47-10.56-36.44-8.15-24.06-8.67-48.25-3.31-72.93s11.78-49.36,14.86-74.4c10.45-85-14.49-158.12-77.3-217.08-13.53-12.7-29.14-23.24-44.1-34.35a222.63,222.63,0,0,0-22-13.85c-20.76-11.94-36.52-28.53-48.38-49.33-21.21-37.23-47-71.13-76.19-102.49-24.59-26.46-51.34-50.45-81.47-70.51-27.95-18.62-57.67-33.28-90.79-40.27s-63.55,0-91.56,18.13c-5.47,3.55-10,8.75-14.45,13.63-5.84,6.39-11,13.41-16.82,19.82a116.55,116.55,0,0,1-14.35,13.85c-10.93,8.51-19.09,7.52-27.36-3.23a147.19,147.19,0,0,1-10.67-16.87c-7.24-12.68-14.13-25.59-26.41-33.62,1.83-5.89,5.65-4.66,8.63-4.28,8.46,1.07,16.74,3.78,25.31,3.18,1-5.15-2.28-7-5.12-7.94-9.44-3.18-19.05-5.84-28.62-8.62-4.31-1.26-9.24-1.36-11.84-7.26,5.43-3.49,11.29-1.76,16.88-1.74,5.25,0,10.5,0,15.76,0,.45-4.56-3-5.66-5.89-7-20.84-9.66-43.19-13.34-65.7-16.18-14.54-1.83-29.16-3.07-43.72-4.72a38.66,38.66,0,0,1-6.5-1.78c-1.6-4.95,1.68-6.08,3.79-6.49a142,142,0,0,1,17.69-2.17c6.56-.47,13.14-.49,19-.69,2.87-5.41.13-7.64-3-8.51-8.86-2.44-17.88-4.33-26.85-6.44-.35-8.34-1.64-17,7.35-21.78-2.36-5.12-6-3.8-9.07-3.6-14,.91-27.92.77-41.66-3-17.7-4.88-35.39-6.42-52.67,2-.82.4-2.35-.66-3.8-1.11,4.17-10.46,13.27-15.09,22.93-17.55,14.16-3.6,28.71-5.6,43.07-8.42,13.05-2.56,26.15-5,39.05-8.14,4.1-1,7.64-4.28,13.66-7.84-4.5-1.92-6.59-3.42-8.82-3.68-20.17-2.38-40,.29-59.32,5.77-21.79,6.16-43.42,12.9-65.05,19.58-14.09,4.35-28.31,7.74-43.18,6.78-3.08-.2-6.09-1.28-10.46-2.24,5.36-12.12,17.54-10.74,24.7-16.71,1.57-4.26-1.72-5.95-4.35-7.67-10.92-7.16-22.73-8.29-34.18-2.33a158,158,0,0,0-26.59,17.44c-11.37,9.22-21.77,19.64-32.69,29.42-8.06,7.21-16.72,13.05-28.16,13.71-9.81.56-17.6,6.29-24.6,12.39-10.78,9.4-22.83,15.69-36.44,20a95.05,95.05,0,0,0-24.94,12.37c-14.21,9.85-28.42,20-41.11,31.69-9.17,8.44-16.48,19.14-23.52,29.58-9.3,13.81-17,28.67-26.39,42.43a170,170,0,0,1-20.69,24.18c-6,6-13.53,7.91-22.06,4.17-32.76-14.36-68.31-17.14-102.75-24.63-16.89-3.67-33.69-8-50.24-13A98.34,98.34,0,0,1,2553.77,676c-20.61-16.65-27.72-39.06-19-64.3,4.56-13.15,10.64-25.87,17-38.3,12.76-25,22.41-51.26,31.1-77.87,9.28-28.41,11-57.63,7-87-2.92-21.75-7.45-43.3-11.8-64.82-3.29-16.32-7.67-32.41-11.12-48.7-5.31-25.1-15.32-48.16-29.06-69.72-15.85-24.86-34.91-47.1-55.68-67.92a771.34,771.34,0,0,0-100.83-84.95C2338.55,42.15,2291.29,21,2240.35,8.17c-49.06-12.37-97.63-10.42-146,4C2026.82,32.36,1970,69.65,1922,120.5c-62.41,66.12-107,142.48-130,231-7.37,28.35-15.19,56.64-24.26,84.49a454.37,454.37,0,0,1-22.61,55.42c-15.14,31.56-38.33,56-69.71,72-15.41,7.87-31.08,15.28-46.87,22.38-14,6.27-28.32,11.69-42.4,17.73-25.23,10.8-49,24.11-70.4,41.46-30,24.35-60.64,48-90.15,73a867.83,867.83,0,0,0-126.73,132.91c-46.94,60.8-90.9,123.44-125.11,192.46-27.66,55.82-48.45,114-59.45,175.44-5.53,30.92-9.42,61.93-6.81,93.44.49,6,.32,12,.66,18,1.09,19.09-3,37.11-11.26,54.22-5.78,12-11.59,24-17.94,35.7a314.86,314.86,0,0,0-23.18,55.16c-8.86,27.93-18.4,55.66-28.22,83.27-22.83,64.18-57.41,121.45-101.88,173a1197.32,1197.32,0,0,1-94.6,97.6C795.8,1861.6,760,1893.57,724.57,1926c-36.43,33.31-71.43,68-103.8,105.37-80.23,92.56-128.68,199.69-149.2,320.17a932.2,932.2,0,0,0-11.1,215.17,646.55,646.55,0,0,0,17.14,112.51c1.69,7,2.12,14.65,7.79,20.25a5.16,5.16,0,0,1,1.42,3.64c-1.11,12.53,5.13,21.35,14,29.07,1.93,1.68,3,4.38,4.37,6.66,5.09,8.41,10.16,16.85,15.63,25.94-2.68,1-4.33,2.19-6,2.24-110.59,3.66-221.13,9.42-331.83,8.72-32-.21-63.9-2.7-95.87-3.46-15.26-.37-30.7-.32-45.8,1.59C17.24,2776.87,11,2782,0,2802.66v12C2.92,2818.88,5.92,2823.05,8.73,2827.34ZM2513.5,584.81c-13-19-20.38-40.95-21.63-65.12-2.73-53.05,14.74-99.12,48.58-139.41,3.77-4.48,8.35-8.28,13.82-13.65C2581.34,426.45,2557.77,547.93,2513.5,584.81ZM2762.16,843c-2.69,27.83-6.45,55.58-10.57,83.25a347.7,347.7,0,0,1-42.22,122.07c-13,22.72-17.43,24.6-43.64,21.09-11.87-1.59-23.82-3.59-35.73-3.62-54-.1-107.95,1.47-161.65,8.16-26.22,3.27-69.9,44.3-71.79,45.88-33.39,27.72-58.52,62-78,100.38-13.86,27.28-26.48,55.27-38.25,83.54-15.36,36.89-29.17,74.42-43.94,111.56a695.68,695.68,0,0,1-42.06,88.36c-23.5,41.15-53.84,76.06-93.1,102.91q-30.54,20.88-61.11,41.7c-4.86,3.32-9.67,6.69-17.25,11.94,1.19-6.72,1.09-10.64,2.59-13.81,4.83-10.23,10.31-20.16,15.44-30.26,4.52-8.91,9-17.82,13.28-26.85,2-4.3,3.1-8.88-.5-13.1-5.32-2.22-9.39.56-12.33,4.1-5.5,6.64-11.22,13.37-15.21,20.93-14.61,27.67-29.46,55.29-42.53,83.7-24.57,53.35-42.27,109.3-59.64,165.31-20.32,65.53-39.78,131.32-63.77,195.67q-12.21,32.73-22.39,66.23c-17.62,58-35,116-40.45,176.93-1.6,17.84-6,35.42-9.15,53.12-3.65,20.85-15.6,35.21-35.06,42.72-16.74,6.46-33.65,12.85-51,17.33-47.88,12.38-96.78,18.06-146.08,21.65-74.9,5.44-149.25.88-223.21-10.57-89.9-13.93-176.71-39.35-261.13-73.15-108.09-43.28-209.42-99.26-306.6-163-21.18-13.9-42.49-27.48-65-39.29-11.16-5.87-21.75-13-32.1-20.21-7.05-4.94-13.76-10.73-14.92-22.05,4-6.16,8.37-13.63,13.49-20.52,25.43-34.29,52.12-67.58,81.51-98.58,25.23-26.6,51.07-52.62,76.37-79.15,33.12-34.73,66.55-69.19,98.8-104.71,41.57-45.79,73.93-97.74,97.73-154.82,12.3-29.5,23.78-59.36,35.14-89.24,14.92-39.22,29.35-78.63,44-117.94,1.47-3.94,2.84-8,7.4-12.17,1.9,5.5,3,9.23,4.46,12.85,6.59,16.86,16.1,22.34,34.26,20,10.17-1.3,18.92-6,27.78-10.72,3.75-2,6.33-7.35,12.72-4.83-3.35,4.36-6.86,8.24-9.45,12.66-1.13,1.92-1.4,5.75-.21,7.29,1.82,2.38,5.15,4.68,8,4.89s7-1.28,8.85-3.48c5-6.11,10.29-12.48,13.38-19.65,6.84-15.87,12.84-32.15,18.37-48.54,4.51-13.41,9.14-26.37,20.74-35.66a25.86,25.86,0,0,0,6.85-9.62,8.19,8.19,0,0,0-1.08-7.13c-1.41-1.67-4.84-3-6.88-2.5a25.37,25.37,0,0,0-10.5,5.3,184.68,184.68,0,0,0-18.19,18.5q-16.67,19.93-32.45,40.62c-6.14,8-13.22,12.34-23.82,11.32-9.16-.88-18.46-.19-27.23-.19-6.6-13.21-5.27-26.07-3.74-38.5,3.51-28.43,7.14-56.89,12.25-85,17.32-95.35,51.54-184.55,99.73-268.47s108.33-158.09,175.36-227.42c49.21-50.88,104.22-93,167.8-124.25,24.5-12,48.19-25.73,71.93-39.25a410.37,410.37,0,0,0,62.25-43.39c26.91-22.79,48-49.85,61.35-82.66,5.51-13.57,11.07-27.17,15.66-41.06,8.36-25.29,15.78-50.9,24-76.23,24.06-74.07,57.59-143.37,105-205.51,26.46-34.68,56.82-65.41,93.46-89.48q99.75-65.5,214-30.66c37.64,11.55,73.93,26.51,109.37,43.71,72.49,35.19,129.63,88.16,177.36,152.11,9.18,12.29,16.88,25.45,22,40.17s2.72,27.75-7.7,38.91c-8.17,8.75-17.19,16.7-25.87,25q-17.34,16.51-34.76,33c-1.75,1.65-3.69,3.09-6.19,5.18-1.2-3.13-2.14-4.81-2.5-6.62-6.49-32.82-10.8-65.74-5.77-99.28.87-5.79.13-12-.69-17.84-.89-6.28-4.43-9.84-8.32-9.69-4.84.18-6.87,3.86-8.26,7.55a95.47,95.47,0,0,0-4.5,15.33,389,389,0,0,0-6.69,99.47c3,48,10.74,95.3,20.29,142.36q12.12,59.73,24.1,119.5c1.92,9.62,3.78,19.32,2.56,30.49-4.71.1-8.57.51-12.37.2-51.13-4.24-102.24-8.78-153.38-12.85-43.19-3.44-86.42-6.93-129.8-5.1-28.66,1.21-57.46,3.05-85,11.58C2075.87,677,2056.39,686,2036.67,694c-47.14,19.16-87.06,48.6-121.55,85.74-23.68,25.51-44,53.53-62.23,83.1-23.11,37.51-43,76.72-61,116.91-17.65,39.54-34.55,79.42-52.13,119-22.84,51.4-51,99.59-87.34,142.79a176.47,176.47,0,0,1-35.19,32.35c-12.06,8.29-23.55,17.47-34.78,26.87-5,4.2-9.12,9.66-13,15-1.23,1.72-1.21,5.54-.09,7.38s4.52,3.47,6.6,3.15c4.47-.7,9.33-1.86,13-4.38,8.19-5.66,15.81-12.18,23.52-18.51,10.29-8.45,20-17.73,30.76-25.46,20.76-14.86,39-32.29,55.51-51.6a565.47,565.47,0,0,0,52.69-72.83,834.68,834.68,0,0,0,52.73-100.92c20.33-46.36,40.11-93,59.93-139.56q37.3-87.72,114.26-143.81c64.65-47.36,137.81-71.54,217.06-78.79,48.1-4.41,95.92-.54,143.59,5.44,67.49,8.46,134.07,21.88,200.25,37.51,57.69,13.62,115.59,26.35,173.39,39.48,7.14,1.62,14.38,2.88,21.39,4.93,14.78,4.31,24.31,14.14,26.39,29.44C2762.09,819,2763.29,831.2,2762.16,843Zm-125,473.74c.86,5.89,1.6,12,3.73,17.46,13.43,34.54,19.36,70.8,22.28,107.28,5.16,64.41,9.67,128.94,11.86,193.5,3.77,111.18-9.14,220.85-35.74,328.82-11.79,47.88-25.34,95.32-46.69,140a325.62,325.62,0,0,1-23.43,41.73,94,94,0,0,1-22.06,22.75c-17.26,12.63-34.87,11-51.08-3.11-10.18-8.87-17.6-19.93-24.15-31.62-19.81-35.36-32.46-73.13-35.45-113.56-3.39-45.84-6.34-91.75-7.79-137.69a2260.08,2260.08,0,0,1,4.26-227.8q4.7-67.79,11.9-135.38c2-19.13,6.71-38,10.7-56.87,3.27-15.49,10-28.72,25-36.66,11.14-5.9,13.63-16.31,10.09-27.49-3.19-10.08-7.83-19.76-12.35-29.37-5.11-10.83-11.28-21.18-16.11-32.12-6.09-13.78-7-27.88-3.1-42.9,4.94-19,12.34-36.48,23.91-52.31a428.2,428.2,0,0,1,87.86-89.6c5.84-4.42,12-8.41,18.21-12.32,17.26-10.93,36.1-17.44,56.59-17.2,19.28.23,38.61,1,57.78,2.89,26.51,2.57,52.91,6.25,79.32,9.73a203.71,203.71,0,0,1,25.48,4.86c7.82,2.06,10.75,7.21,8.55,15.3a101.19,101.19,0,0,1-8,20.32c-5.55,10.62-12.43,20.55-17.81,31.24-28.07,55.82-66.33,104.5-106,152.24a87.74,87.74,0,0,1-6.29,6.14c-5.2-12.64-9.24-23.9-14.44-34.6-3.79-7.79-9.39-14.68-17.29-18.86-2-1-5.18-.69-7.36.17C2638.2,1312.22,2636.9,1315.11,2637.13,1316.71ZM3216.93,561a5,5,0,0,1-1.54.41c-.19,0-.36-.7-.53-1.08a5.12,5.12,0,0,1,1.53-.38C3216.59,560,3216.75,560.63,3216.93,561Zm510.15,294.26c-10.27.57-18.73-.11-26.93-3.08-10.64-3.85-21.18-8-31.79-11.9-13.72-5.09-27.22-11-41.28-14.85-9.44-2.58-19.68-2.58-29.59-2.92-9.51-.33-16.72,4.31-20.66,13.06-4.63,10.31-9.14,20.7-13.17,31.26-12.11,31.73-23.48,63.75-36.08,95.28-8.14,20.38-17.41,40.36-27.09,60.06a233.9,233.9,0,0,1-38.23,55.93c-24.31,26.25-53.61,44-89.23,49.23a635.6,635.6,0,0,1-69.58,6.22c-46,1.6-92-2.06-137.5-8.65-67.87-9.82-135.45-21.65-203.15-32.65-73.67-12-147.4-23.44-222.37-22.77-3.13,0-6.77.76-9.66-4.41,5.31-13.06,11.4-27,16.62-41.19,5.5-15,10.73-30.14,15.06-45.5,4.15-14.72,7.46-29.72,10.3-44.75s5.32-30.2,6.72-45.43c1.46-15.9,1.28-32,2.12-47.92.8-15.17-2.8-30.41.07-45.51,8.08-1.93,15.16.27,22.25,1.92q51.56,12,103.07,24.14c62.21,14.78,124.46,28.76,188.33,35.25,56.2,5.71,110.13-2,163.47-18.85,37.26-11.76,68.68-31.61,93.19-62.36,11.63-14.58,23.58-29,36.47-42.45,11.46-12,23.56-23.71,36.89-33.47,27.56-20.2,59-26.52,92.85-22.3,27,3.37,51.38,13.44,73.86,28.48a282.12,282.12,0,0,1,59.32,53.28c24.43,29.07,47.92,58.92,71.71,88.52C3724.58,848.81,3725.25,851.38,3727.08,855.26Zm140.09,1331.4a238.69,238.69,0,0,1-10.07,28.18c-1.66,4-5.07,7.25-7.86,11.08-9.85-3.08-15-10.28-20.78-16.51-25.31-27.31-42-59.86-56.12-93.86-27.32-66-39.78-135.32-44-206.19-5.71-95.56,1.71-190.46,17-284.78a2154.36,2154.36,0,0,1,70-295.24c6.52-20.94,14.54-41.43,22.11-62,4.15-11.3,8.32-22.56,7.49-34.87-.46-6.74-1.21-14-7.94-17.32-8-3.93-14,1.41-19.35,6.56-12.69,12.18-21.46,27.09-29.13,42.72-2.21,4.52-4.17,9.16-6.76,14.89-3.23-2.87-5.4-4.37-7-6.31-28.36-33.64-55.54-68.14-80.29-104.6-50.72-74.72-67.69-158.32-65.85-246.81.3-14.43,4.65-28.82,7.71-43.1.74-3.43,3.85-6.34,6-9.67,3.57,1,6.29,1.37,8.57,2.54,28.54,14.61,58.89,24.77,88.59,36.57,23.48,9.32,47.19,18.75,69.19,31,71.36,39.76,108.36,102.24,115.54,182.78,4.14,46.45-2.59,91.69-18.3,135.62-3.14,8.76-5.72,17.75-8.14,26.74-2.56,9.52-1.3,18.93,4.74,26.65,10.27,13.12,14.47,28.52,17.23,44.24,5.07,28.85,9.13,57.88,13.63,86.83,9.76,62.68,15.32,125.74,14.13,189.15-1.72,91.31-7.3,182.4-18.46,273.11-6.76,54.94-16,109.41-29.64,163C3889.22,2107.08,3878.15,2146.87,3867.17,2186.66ZM2210,2616.24c17.11-80.51,55.86-149.17,113.26-207.71,40.39-41.19,86.49-75.09,134.95-106,33.15-21.13,66.32-42.23,99.7-63a318.09,318.09,0,0,1,35-19.28c24.46-11.23,32.17-9,46,13.79a143.52,143.52,0,0,0,30.79,36.5c16.37,13.62,32.78,27.5,50.69,38.88,25.26,16.06,51.18,31.43,78.08,44.5,143.69,69.8,294.51,116.52,453.06,137.67a741.06,741.06,0,0,0,226.95-4.4c111.62-19.51,212.55-64.12,304.45-129.68,11.24-8,20.66-18.75,30.28-28.84,3.51-3.67,5.83-8.91,7.48-13.84,2.45-7.29-3.7-13.91-10.94-11.82a45,45,0,0,0-14.2,6.86c-8,6-16.08,12.1-22.83,19.37-19.06,20.49-42.52,34-67.8,44.93-13.46,5.78-27,11.52-40.71,16.56-87.14,31.95-177.76,46.38-269.94,51.42-98.12,5.35-195.87.8-292.9-15.59-56.59-9.56-112.5-22.09-166.45-41.81-88.2-32.26-169-78.44-245.13-133.11-10.24-7.36-19.39-16.26-29-24.45-16.78-14.23-22.27-32.72-19.61-53.88a293.42,293.42,0,0,1,5.74-29.4c14.48-62.32,32.76-123.6,51-184.9,13.85-46.66,26.09-93.76,32.13-142.14,3.39-27.08,5-54.4,7.16-81.63a1533.19,1533.19,0,0,0,2.85-199.81c-1.43-27.39-4.55-54.44-14.93-80.17-1.74-4.31-2.69-8.93-4.21-13.34-5.61-16.24-3.71-31.33,6.22-45.52,9.16-13.11,18-26.43,26.87-39.74,33.23-49.92,67.5-99.26,85.76-157.36,2.19-7,5.47-13.59,8.4-20.3,1.87-4.27,4.22-8.33,6-12.62,4.59-10.85,12.88-14.83,24.08-12.86,11.79,2.06,23.58,4.25,35.23,7,17.5,4.12,34.66,10,52.33,13,57.18,9.43,114.49,18.06,171.81,26.56a714.28,714.28,0,0,0,157.55,6.18c66.26-4.89,123.78-29.88,170.9-77.49,20.75-21,38.2-44.46,53.62-69.51,18.55-30.13,34.09-61.84,48.44-94.13,12.18-27.39,24-54.94,36.17-82.34,1.37-3.1,3.85-5.71,8.22-12-.74,8.28-.86,12.24-1.47,16.11-9.69,61.4-6.33,122.17,8,182.54s39.25,115.92,71,168.8a327.06,327.06,0,0,0,35,48.58c9.25,10.49,17.74,21.64,26.72,32.38,9.23,11,12,23.48,8.77,37.4-1.06,4.54-1.64,9.21-3,13.64-5.15,16.52-10.58,33-15.84,49.46-6.07,19-13.13,37.81-17.9,57.16-21.85,88.76-37.49,178.59-44.74,269.82-6.35,80-6.76,159.79,5.14,239.34,7.73,51.62,21.24,101.59,42.38,149.5,14.8,33.53,35.13,62.65,63.06,86.42q13.7,11.67,27.13,23.65c12.42,11.11,25,22.07,37,33.65,17.4,16.86,31.38,36.15,40.3,59,4.36,11.15,9.54,22,14.86,32.75a156.18,156.18,0,0,0,12.17,20.61c2,2.77,5.84,4.18,9.86,6.88,2.87-7.49,5.14-13.44,7.8-20.42,11,5.15,18.85,13.12,25.88,22,11.82,14.89,18.75,32.12,23.69,50.27,7.77,28.5,10.56,57.74,11,87.06.51,35.31,0,70.66-1.22,106-1.49,45.36-2,90.63,3.44,135.8a95.12,95.12,0,0,1,.7,17.92c-.89,12.52-4.47,16.73-17.1,17.7a440.28,440.28,0,0,1-47.9,1.39c-31.34-1-62.6-1.58-93.91,1.12-16.57,1.43-33.3,1.19-50,1.55-3.71.08-7.42-.49-12.35-.85,1.37-6.37,4.5-9.76,7.66-12.92,12.24-12.26,24.53-24.48,37-36.51,13.42-13,27.72-25.1,40.41-38.73a356.08,356.08,0,0,0,31.09-39c12.39-17.77,18.78-38.24,21.93-59.53,1.05-7.07.47-14.63-.75-21.73-1.19-6.94-8.73-9.32-13.84-4.71a124.22,124.22,0,0,0-15.16,15.87c-18,23.16-36.33,46.08-53.21,70-25.35,36-56.3,65.63-93.85,88.52a398.44,398.44,0,0,1-75.9,35.46c-62.18,21.81-126.77,30.74-192.06,35.38-87.94,6.25-175.93,3.34-263.81-1.1-70.53-3.56-141-9.24-211.4-14.66-30.54-2.35-61-6.26-91.42-9.74-37.73-4.31-75.4-9.15-113.15-13.32-52.31-5.78-104.74-10.57-157-16.83-51.82-6.21-102.17-18.74-150.18-39.71-16.48-7.19-33-14.22-49.23-22.07-30-14.53-59.59-29.73-89.51-44.37a192,192,0,0,0-24-9.5c-3.8-1.25-8.15-.56-10.54,3.5a9.29,9.29,0,0,0,1,11.23c5.39,5.76,10.85,12,17.57,15.83,12.12,6.86,25.2,12,37.86,17.94,13.88,6.46,28,12.5,41.54,19.55,14.77,7.67,29.09,16.23,43.5,24.56,1.45.84,2.24,2.81,4.16,5.34-8.42,0-15.52.19-22.61,0Q2348,2774,2259,2771.23c-10-.29-20,.34-30,0-20.29-.69-26.84-7.15-28.92-27.8-.2-2-.28-4-.35-6A496.39,496.39,0,0,1,2210,2616.24Zm-306.39-1.45c-.54-53.77-9.61-106-30.65-155.88-7-16.55-13-33.53-18.68-50.6-10.4-31.54-13.76-63.74-6.6-96.54,4.69-21.47,8.35-43.25,14.55-64.27,16.37-55.56,33.12-111,51.12-166.1,27.57-84.31,52.85-169,63.77-257.5a439.84,439.84,0,0,1,22.94-95c6.59-18.29,17-33,34.42-42.36a192.8,192.8,0,0,0,17.05-10.43c33-22.52,66.4-44.55,98.82-67.91a264,264,0,0,0,83.22-98.23c10.91-22.06,21.35-44.48,30.09-67.46,13-34.22,24.3-69.1,36.38-103.68,11.44-32.72,23.79-65.07,40.29-95.66,13.68-25.36,29.93-48.86,50.62-69.08,5.14-5,10.75-9.54,16.15-14.3l3.48,1.93c-1.48,7.77-2.69,15.61-4.48,23.31-9.63,41.29-7.91,82,6,122.08,3.5,10.06,6.83,20.2,9.75,30.43,2.74,9.59,4.71,19.4,7.27,29,3.58,13.46,2,26.2-3.59,39a134.46,134.46,0,0,0-8.52,26.55c-3.44,17-6.3,34.08-8.57,51.24-8.65,65.45-13.06,131.27-16.81,197.14-1.55,27.28-3.18,54.56-5.06,81.82-4.8,69.89-6.4,139.85-1.93,209.79,2.6,40.58,8.34,80.8,18.83,120.26,15.17,57.07,39.81,108.73,83.64,149.76,1.2,1.12,1.37,3.32,1.9,4.68-.88,1.07-1.19,1.79-1.73,2-5.37,2.62-10.75,5.22-16.18,7.71-46.79,21.47-91.07,47.2-131.93,78.63-45.79,35.22-85.75,76-117,124.83-51.76,81-69.12,169.24-55.33,264,2.19,15,5.08,30,7.89,46.41-7.5.1-14.08.49-20.63.23-24.64-1-49.26-2.8-73.9-3.14-53.31-.73-106.62-.72-159.93-1.09-5.13,0-10.25-.54-16.62-.9-.25-8.29-.68-15.49-.65-22.68C1903.23,2700.1,1904,2657.44,1903.61,2614.79ZM544.46,2732.5c-24.56-56.42-35.34-115.74-35.85-177-.5-61.63,8.47-122.15,23.36-181.85a978.48,978.48,0,0,1,93-237.42c3.78-6.85,6.51-14.62,14.43-20.15,5.26,3.63,10.7,7.31,16.06,11.11,42.4,30,84.4,60.66,127.26,90a1238.37,1238.37,0,0,0,239.2,127.8c132.21,53.1,267.72,93.48,410.15,107.34,71.28,6.93,142.43,6.45,213-6.69,54.74-10.18,106.8-28.15,155-56.62,3.32-2,6.81-3.65,11.06-5.91,3.27,5,6.42,9.23,8.92,13.79,23,41.94,36.74,86.91,44.11,134,8.11,51.74,7,103.59,2.09,155.47-1.83,19.22-3.61,38.49-6.65,57.54-3.66,23-9.63,27.87-32.6,30.1a74,74,0,0,1-10,.42c-15.3-.61-30.62-.93-45.88-2.14-23.89-1.9-47.73-6.06-71.62-6.32-41.28-.45-82.66,0-123.85,2.53-69.18,4.19-138.35,8-207.63,9.32-123.29,2.3-246.51-1.7-369.74-4.47-112.57-2.52-225.13-5.42-337.7-7.75-25.91-.54-52-2.09-77.62,4.22a50.55,50.55,0,0,1-6,.58c-8.21,1-14.44-2.25-18.27-9.39C553.7,2751.68,548.7,2742.24,544.46,2732.5Z"/><path d="M3216.93,561c-.18-.37-.34-1-.54-1a5.12,5.12,0,0,0-1.53.38c.17.38.34,1.08.53,1.08A5,5,0,0,0,3216.93,561Z" fill="#fff"/><path d="M1666.45,1113.53c-9.82,5.47-14,11.53-18.18,17.3-11.61,16.24-22.89,32.71-34,49.28-10.76,16-21.1,32.32-31.73,48.43a178.89,178.89,0,0,1-60.75,56.78c-15,8.65-30.47,16.37-45.79,24.39-14.15,7.4-28.82,13.91-42.43,22.19a306.38,306.38,0,0,0-35.49,25.69c-18.21,15-27.23,35.77-33.22,57.94-1.35,5-1.41,10.56-1.14,15.81.39,7.73,7.87,11.71,14.41,7.33a64,64,0,0,0,14.54-13.37,374.81,374.81,0,0,0,21.86-31,102.41,102.41,0,0,1,33.72-33.43c13.07-8,26.36-15.54,39.6-23.21s26.73-14.93,39.75-23a177.89,177.89,0,0,0,52-48.91c13.13-18.43,27.81-35.74,41-54.15,11.58-16.22,22.32-33.08,32.8-50,7.05-11.41,10.91-24.23,13.06-37.48C1666.8,1121.64,1666.45,1119,1666.45,1113.53Z"/><path d="M1440.25,1242.21c-1.37.56-4.75,1.26-7.27,3.14a43.25,43.25,0,0,0-8.29,8.58c-4.44,5.82-9,11.62-12.66,18-14.58,25.63-35.41,44.65-60.71,59.3-10.37,6-20.37,12.65-30.37,19.27-7.76,5.15-15.29,10.66-22.88,16.08-15,10.7-23.3,25.26-25.27,43.54-.64,6-1.54,11.89-2.29,17.84a78.11,78.11,0,0,1-20.79,44.48,204.57,204.57,0,0,0-14,17,30.23,30.23,0,0,0-4.18,8.87c-1.21,3.78,3.43,8.43,7.14,7,4.89-1.92,10.08-3.88,14.08-7.13,17.23-14,32.42-29.68,39.89-51.38,3.25-9.44,7.12-18.66,10.52-28a90.25,90.25,0,0,1,30-41.46c20-15.54,39.6-31.54,59.19-47.59,17.06-14,32.53-29.59,45.39-47.6a161.54,161.54,0,0,0,10.62-16.88,38.08,38.08,0,0,0,3.75-11.24C1453.42,1247,1448.88,1242,1440.25,1242.21Z"/><path d="M2992.73,2765.5c7.93-1.25,22.64-2.38,36.71-6,32.28-8.34,54.11-30.2,70.52-58.14,4.11-7,6.35-14.66,4.69-23-1-5-6-8.17-10.54-5.86a124.56,124.56,0,0,0-17,10.4c-10.2,7.48-20,15.5-30.11,23.13-10.94,8.26-23.2,12.26-37.05,13-33.57,1.87-66.59-1.5-99.18-9.11a585.84,585.84,0,0,1-147.22-55.6c-22.39-12.17-42.55-27.33-61.22-44.64-8.69-8.05-14.65-17-14.61-29.41a53.82,53.82,0,0,0-2.24-13.73,18.65,18.65,0,0,0-4-6.69c-3.14-3.7-10.4-2.33-11.25,2.33-.94,5.14-1.63,10.61-.89,15.71,1.43,9.87,4.16,19.53,5.94,29.35,2.23,12.33,8.72,22.12,17.14,31a256.07,256.07,0,0,0,44.62,36.83,596.9,596.9,0,0,0,179.86,80.12C2939.61,2761.17,2962.68,2764,2992.73,2765.5Z"/><path d="M3582.21,2743.79c28.23,0,56.7-6.66,84.84-14.85a598.27,598.27,0,0,0,78.45-29.14c13.33-6,27.12-11,40.34-17.2a114.3,114.3,0,0,0,20.06-12.68c3.83-2.91,3.12-9.16-.52-12.42-4.65-4.14-9.76-6.86-16.32-4.84-8.89,2.73-17.85,5.26-26.73,8-38.07,11.91-76,24.26-115.29,31.69-24.14,4.58-48.56,7.65-72.88,11.22-4.59.67-9.29.53-13.94.77-11.39.6-20.58-3.19-27.76-12.48a123.1,123.1,0,0,0-15.19-15.79c-2.85-2.57-6.6-4.35-10.21-5.83s-8.74,1-9.53,4.89-1.47,8-1,11.8c2.93,23.67,14.84,40.86,37.27,50.1C3548.91,2743.3,3564.83,2744,3582.21,2743.79Z"/><path d="M2682.55,2526.81c-1.38,8.52,3.18,9.75,6.46,11.34,15.14,7.35,31.42,10.43,48,12.61,74.58,9.79,148.65,22.32,220.86,44,36.34,10.89,72.22,23.06,106.06,40.57,8.88,4.6,18,8.72,28.39,8.42,3.33-.09,7.35-.61,8-4.4.51-2.89,0-7.36-1.85-9-5.94-5.2-12.24-10.51-19.32-13.79-16.88-7.81-34-15.44-51.52-21.44-87.08-29.74-176.1-51.59-267.45-63.37-18.46-2.38-37.06-3.79-55.63-5.19C2697.4,2526,2690.13,2526.67,2682.55,2526.81Z"/><path d="M3821.64,2584.77c3.39-7.24,2.48-11.84-.85-15.37-2.63-2.78-6.14-5.74-9.68-6.41a101.08,101.08,0,0,0-23.76-2c-70.16,3.79-138.93,15.4-205.72,37.66-7.57,2.52-15,5.46-22.39,8.52a37.58,37.58,0,0,0-8.51,5.15c-3.2,2.5-6.47,5.9-4.07,10,1.38,2.37,5.2,4.69,7.9,4.66a125.82,125.82,0,0,0,23.72-2.34,253.59,253.59,0,0,0,26.92-7.52c61.29-19.76,124.28-29.32,188.5-31.51C3803,2585.3,3812.26,2585.05,3821.64,2584.77Z"/></g></g></svg>