<svg xmlns="http://www.w3.org/2000/svg" xmlns:xlink="http://www.w3.org/1999/xlink" viewBox="0 0 176.62 28.69"><defs><linearGradient id="linear-gradient" x1="88.31" y1="27.29" x2="88.31" gradientUnits="userSpaceOnUse"><stop offset="0" stop-color="#f16bc7"/><stop offset="0.06" stop-color="#f27fcd"/><stop offset="0.18" stop-color="#f3a3d9"/><stop offset="0.3" stop-color="#f4c0e3"/><stop offset="0.43" stop-color="#f4d5ea"/><stop offset="0.55" stop-color="#f5e1ee"/><stop offset="0.67" stop-color="#f5e5ef"/></linearGradient><linearGradient id="linear-gradient-2" x1="88.31" y1="28.69" x2="88.31" y2="27.29" gradientUnits="userSpaceOnUse"><stop offset="0" stop-color="#8c8c8c"/><stop offset="0.47" stop-color="#a9a9a9"/><stop offset="0.89" stop-color="#bfbfbf"/></linearGradient><linearGradient id="linear-gradient-3" x1="0.64" y1="27.29" x2="0.64" gradientUnits="userSpaceOnUse"><stop offset="0" stop-color="#757575"/><stop offset="0.66" stop-color="#a9a9a9"/><stop offset="1" stop-color="#bfbfbf"/></linearGradient><linearGradient id="linear-gradient-4" x1="-3013.5" y1="27.29" x2="-3013.5" gradientTransform="matrix(1, 0, 0, -1, 3189.48, 27.29)" xlink:href="#linear-gradient-3"/><linearGradient id="linear-gradient-5" x1="88.31" y1="27.29" x2="88.31" y2="26.54" gradientUnits="userSpaceOnUse"><stop offset="0" stop-color="#f2f2f2"/><stop offset="0.06" stop-color="#d1d1d1"/><stop offset="0.21" stop-color="#7b7b7b"/><stop offset="0.4"/></linearGradient></defs><g style="isolation:isolate"><g id="Layer_2" data-name="Layer 2"><g id="Layer_3" data-name="Layer 3"><rect width="176.62" height="27.29" fill="url(#linear-gradient)"/><polygon points="176.62 27.3 0 27.3 1.31 28.69 175.32 28.69 176.62 27.3" fill="url(#linear-gradient-2)"/><path d="M171.88,28.15H4.75A1.31,1.31,0,0,1,4,28H4c-.11-.11.07-.2.39-.2h167.9c.33,0,.5.09.4.2h0A1.36,1.36,0,0,1,171.88,28.15Z" fill="#737373"/><rect width="1.28" height="27.29" fill="url(#linear-gradient-3)" style="mix-blend-mode:multiply"/><polygon points="1.28 27.3 0 27.3 1.31 28.69 2.57 28.69 1.28 27.3" fill="#757575" style="mix-blend-mode:multiply"/><polygon points="175.34 27.3 176.62 27.3 175.32 28.69 174.05 28.69 175.34 27.3" fill="#757575" style="mix-blend-mode:multiply"/><rect x="175.34" width="1.28" height="27.29" transform="translate(351.97 27.29) rotate(180)" fill="url(#linear-gradient-4)"/><rect y="26.54" width="176.62" height="0.75" opacity="0.5" fill="url(#linear-gradient-5)" style="mix-blend-mode:screen"/></g></g></g></svg>