<svg xmlns="http://www.w3.org/2000/svg" xmlns:xlink="http://www.w3.org/1999/xlink" viewBox="0 0 76.47 73.31"><defs><style>.cls-1{fill:#1e0f00;}.cls-2{fill-rule:evenodd;fill:url(#linear-gradient);}</style><linearGradient id="linear-gradient" x1="26.64" y1="53.32" x2="72.56" y2="7.41" gradientTransform="translate(-17.72 11.82) rotate(-16.4)" gradientUnits="userSpaceOnUse"><stop offset="0" stop-color="#002488"/><stop offset="0.01" stop-color="#0441a9"/><stop offset="0.04" stop-color="#0f8aff"/><stop offset="0.05" stop-color="#138cff"/><stop offset="0.11" stop-color="#44a4ff"/><stop offset="0.19" stop-color="#70b9ff"/><stop offset="0.27" stop-color="#97ccff"/><stop offset="0.35" stop-color="#b7dcff"/><stop offset="0.44" stop-color="#d1e9ff"/><stop offset="0.54" stop-color="#e6f3ff"/><stop offset="0.65" stop-color="#f4faff"/><stop offset="0.78" stop-color="#fcfeff"/><stop offset="1" stop-color="#fff"/></linearGradient></defs><g id="Layer_2" data-name="Layer 2"><g id="Layer_1-2" data-name="Layer 1"><path class="cls-1" d="M69.05,52.81a25.82,25.82,0,0,1-4,1.09c-3.65.73-4.52.77-6.75.28-1.49-.31-5.52-1.32-6.34-1.57-.59-.18-3.23-.84-4.36-1.09A45.63,45.63,0,0,1,40.09,49c-.7-.34-.78-.41-2.09-1.7-1.7-1.67-1.61-1.6-2.06-1.59-.81,0-1.37,1-1.44,2.51a4.88,4.88,0,0,0,.63,2.7,5.19,5.19,0,0,0,1.32,1.62,8.79,8.79,0,0,0,2.66,2,1.23,1.23,0,0,1,.33.18h0a11,11,0,0,1-1.18.19,23.53,23.53,0,0,0-3.47.62,12.71,12.71,0,0,1-1.24.3c-1.21.26-4.14,1.05-5.15,1.41-.79.27-.84.3-1.1.67a2.46,2.46,0,0,0-.24,2.74,1.76,1.76,0,0,0,.19.26c.11.12.27.14.73.21.78.11,1.13.06,4.12-.61a23.05,23.05,0,0,1,5-.75,26.74,26.74,0,0,0,3.81-.4l.66-.15.25.33a2.28,2.28,0,0,1,.27.37s-.13.06-.28.09c-1.36.21-2.54.34-3.51.41a6.48,6.48,0,0,0-2.38.5,5.75,5.75,0,0,1-2.22.45c-1.31,0-1.66.25-1.9,1.16a4.84,4.84,0,0,0-.12,2.06,2.07,2.07,0,0,0,.53.76,1.67,1.67,0,0,0,.83.52.42.42,0,0,1,.19,0s0,.1-.1.26a2.31,2.31,0,0,0-.06,1.65,3.18,3.18,0,0,0,.7,1,1.28,1.28,0,0,0,.32.25c.54.25,1,.29,2.77.21l1.88-.08-.28.27c-.84.82-1.13,1.56-.88,2.26a1.35,1.35,0,0,0,.4.63l.28.25c1,.9,2.24,1,5,.36a25.24,25.24,0,0,1,4-.27c5.47-.13,7.77-.4,10.9-1.32a37.28,37.28,0,0,0,5.38-2.26c1-.49,3.64-1.71,5-2.26.34-.14,1.15-.42,1.81-.63s2-.68,2.89-1.06c1.2-.49,2.34-.92,3.31-1.25Z"/><polygon points="22.66 9.68 22.66 9.68 22.66 9.68 22.66 9.68"/><ellipse cx="9.37" cy="14.91" rx="3.55" ry="2.69" transform="translate(-8.17 16.44) rotate(-62.82)"/><path d="M58.91,19c0-.6-1,3.49-3.12,5.29C54.4,25.46,51.57,27.1,49,26.67c.14,3.67-1.27,5.56-5,4.84.71,3.6-2.13,2.85-7.2,1.1.44,4.61-2.94,3.18-6.44,1.54,1.09,4.61-4.57.84-9.08-2.2,0,0,.61,1.75,1.09,3.2.56,1.69.52,17.36,26.35,27.71l1.71-1c-6.19-3.3-15.81-9.92-20.94-16s-6-10.62-6-10.62c4.51,3.05,9.2,6,8.11,1.4,3.5,1.63,6.88,3.07,6.44-1.55,5.07,1.76,8.06,1.59,7.36-2,3.69.71,5.11-1.17,5-4.85A6.2,6.2,0,0,0,56,26.06,10.11,10.11,0,0,0,58.91,19Z"/><path class="cls-2" d="M56.83,0A26.81,26.81,0,0,1,45,7.19C37.89,9,22.47,9.57,19.61,11.66S11.49,17,11,21.4s.68,5.18.68,5.18-2.61,2-1.53,7.81,6.37,15.69,17.45,23.26,19.53,8.29,19.53,8.29l3.31-4.09S32.61,51.55,27.7,45.57a23.8,23.8,0,0,1-5.35-12.16s.07,0,2.41,1.47c1,.6,4,2.95,5.63,3.06.84.05.59-2.45.59-2.45,2.45,1.06,4,1.73,5.19,1.51,1.84-.32,1.25-3.06,1.25-3.06,1.9.6,5.22,1.6,6.74.53,1.13-.81.62-2.53.62-2.53.52-.24,2.21.48,4-.86,1.24-.93,1-4,1-4A8.65,8.65,0,0,0,55.43,25C64.12,15.8,56.83,0,56.83,0Z"/><path d="M13,5.72c-.72-1.15-4.18-.72-7.73,1s-5.83,4-5.11,5.12,4.18.71,7.73-1S13.69,6.86,13,5.72ZM7.6,10.42c-2.84,1.34-5.61,1.69-6.18.77S2.67,8.44,5.5,7.09s5.61-1.69,6.18-.77S10.43,9.08,7.6,10.42Z"/></g></g></svg>